# xmcd
#
# Track frame offsets: 
#        150
#        29389
#        59499
#        92411
#        121934
#        125166
#        156310
#        186331
#        190208
#        218407
#        251294
#        273364
#
# Disc length: 4065 seconds
#
# Revision: 0
# Processed by: cddbd v1.5.2PL0 Copyright (c) Steve Scherf et al.
# Submitted via: ExactAudioCopy v0.95a5
#
DISCID=a70fdf0c
DTITLE=Jimmy Burns - Live At B.L.U.E.S.
DYEAR=2007
DGENRE=Blues
TTITLE0=Leaving Here Walking
TTITLE1=No Consideration
TTITLE2=Miss Annie Lou
TTITLE3=Can't Hold Out Much Longer
TTITLE4=Intro
TTITLE5=Better Know What You're Doing
TTITLE6=Whole Lot Of Lovin'
TTITLE7=Intro
TTITLE8=Three O'clock Blues
TTITLE9=Country Boy In The City
TTITLE10=Wild About You, Baby
TTITLE11=Stop The Train
EXTD=
EXTT0=
EXTT1=
EXTT2=
EXTT3=
EXTT4=
EXTT5=
EXTT6=
EXTT7=
EXTT8=
EXTT9=
EXTT10=
EXTT11=
PLAYORDER=
